# xmcd
#
# Track frame offsets: 
#        150
#        6818
#        16903
#        27123
#        34718
#        49810
#        56948
#        68135
#        79363
#        86810
#        98298
#        108978
#        118048
#        125738
#
# Disc length: 1800 seconds
#
# Revision: 1
# Processed by: cddbd v1.5.2PL0 Copyright (c) Steve Scherf et al.
# Submitted via: ExactAudioCopyFreeDBPlugin 1.0
#
DISCID=b207060e
DTITLE=Jim Reeves - Jim Reeves - Brilliant Collection
DYEAR=1994
DGENRE=Country
TTITLE0=Have I Told You Lately That I Love You
TTITLE1=If Heartaches Are The Fashion
TTITLE2=I've Lived A Lot In My Time
TTITLE3=I'm Beginning To Forget You
TTITLE4=Beyond The Shadow Of A Doubt
TTITLE5=How's The World Treating You
TTITLE6=Making Believe
TTITLE7=Your Old Love Letters
TTITLE8=Till The End Of The World
TTITLE9=Dear Hearts And Gentle People
TTITLE10=If You Were Only Min
TTITLE11=Everywhere You Go
TTITLE12=Just Call Me Lonesome
TTITLE13=Softly And Tenderly
EXTD=
EXTT0=
EXTT1=
EXTT2=
EXTT3=
EXTT4=
EXTT5=
EXTT6=
EXTT7=
EXTT8=
EXTT9=
EXTT10=
EXTT11=
EXTT12=
EXTT13=
PLAYORDER=
